<svg width="30" height="36" viewBox="0 0 30 36" fill="none" xmlns="http://www.w3.org/2000/svg">
<path d="M0.643004 21.3983L21.1873 8.74064C21.6475 8.45863 22.2365 8.48563 22.6673 8.81864C24.6192 10.3217 26.363 11.8458 27.5265 13.1269C27.5265 13.1269 28.5288 14.1529 28.9625 14.8039C29.663 15.692 30 16.853 30 17.9811C30 19.2472 29.6307 20.4442 28.8951 21.4013C28.7281 21.5723 28.0921 22.3253 27.4913 22.9403C23.9862 26.7685 14.8365 33.0929 10.0242 35.01C9.32379 35.319 7.45399 35.964 6.48392 36C5.54902 36 4.64636 35.796 3.77887 35.349C2.71209 34.7339 1.87684 33.7799 1.40792 32.6488C1.10606 31.8628 0.640073 29.5047 0.640073 29.4357C0.338209 27.7526 0.112544 25.3885 0.00117657 22.6283C-0.0193385 22.1333 0.229773 21.6533 0.643004 21.3983Z" fill="#FCBDEB"/>
<path opacity="0.4" d="M2.01659 14.5806C1.11099 15.1416 -0.0290555 14.4246 0.0149053 13.3475C0.123342 10.8214 0.310908 8.59529 0.539504 6.9392C0.574672 6.9032 1.04066 3.96605 1.57698 2.97301C2.51188 1.12791 4.34651 -0.000143051 6.31888 -0.000143051H6.483C7.75493 0.0328588 10.46 1.16091 10.46 1.22992C11.8228 1.79695 13.6017 2.757 15.5155 3.91205C16.3771 4.43408 16.3976 5.71514 15.536 6.24617L2.01659 14.5806Z" fill="#F089D3"/>
</svg>
